<?xml version="1.0" encoding="UTF-8" standalone="no"?>
<svg
   version="1.0"
   width="401.000000pt"
   height="486.000000pt"
   viewBox="0 0 401.000000 486.000000"
   preserveAspectRatio="xMidYMid meet"
   id="svg3"
   sodipodi:docname="logo ecuela.svg"
   inkscape:version="1.4 (86a8ad7, 2024-10-11)"
   xmlns:inkscape="http://www.inkscape.org/namespaces/inkscape"
   xmlns:sodipodi="http://sodipodi.sourceforge.net/DTD/sodipodi-0.dtd"
   xmlns="http://www.w3.org/2000/svg"
   xmlns:svg="http://www.w3.org/2000/svg">
  <defs
     id="defs3" />
  <sodipodi:namedview
     id="namedview3"
     pagecolor="#ffffff"
     bordercolor="#000000"
     borderopacity="0.25"
     inkscape:showpageshadow="2"
     inkscape:pageopacity="0.0"
     inkscape:pagecheckerboard="0"
     inkscape:deskcolor="#d1d1d1"
     inkscape:document-units="pt"
     inkscape:zoom="1.2854938"
     inkscape:cx="267.60144"
     inkscape:cy="279.65906"
     inkscape:window-width="1920"
     inkscape:window-height="1051"
     inkscape:window-x="-9"
     inkscape:window-y="-9"
     inkscape:window-maximized="1"
     inkscape:current-layer="g3" />
  <g
     transform="translate(0.000000,486.000000) scale(0.100000,-0.100000)"
     fill="#000000"
     stroke="none"
     id="g3">
    <path
       d="M 2154.0165,4753.7003 C 2128.5373,4737.725 29.684065,2487.3338 18.006074,2462.8383 c -5.308176,-11.7153 -7.431446,-21.3004 -5.308176,-23.4305 10.616355,-7.4551 214.450332,-189.5739 280.271732,-252.4102 41.40378,-38.3407 105.10189,-95.8519 143.32077,-127.8026 109.34843,-93.7218 1227.2505,-1093.77731 1328.1059,-1187.49931 49.8968,-46.86097 115.7182,-104.37215 146.5056,-127.80263 30.7874,-23.43047 75.3761,-61.77126 99.7938,-85.20174 90.239,-86.26677 323.7988,-292.88101 331.2302,-292.88101 8.493,0 333.3536,307.79132 544.619,515.47058 l 140.1358,139.51781 v 247.0851 248.1501 h -28.6642 c -23.3559,0 -59.4516,-29.8206 -178.3547,-146.973 -255.8541,-253.4753 -470.3044,-463.28449 -484.1056,-471.80467 -11.678,-6.3901 -513.8316,444.11407 -880.0958,791.31117 -61.575,57.5112 -272.8402,251.3452 -470.30459,431.3339 -196.40248,178.9237 -357.77106,332.2868 -357.77106,340.807 0,8.5202 25.47925,42.6009 56.26668,75.6166 30.78742,33.0156 119.9648,129.9326 198.52582,215.1344 78.56103,85.2016 154.99875,166.1433 169.86165,181.0537 27.6026,27.6906 128.458,139.5178 162.4302,181.0537 56.2668,68.1613 424.6542,467.5446 514.8932,559.1364 96.6088,97.9821 307.8742,326.9618 440.5786,477.1299 30.7875,35.1456 77.4994,87.3317 106.1635,117.1523 l 49.897,53.2511 -2.1232,219.3946 -3.185,219.3943 -74.3145,2.1301 c -40.3421,2.1301 -82.8075,-2.1301 -92.3622,-7.4551 z"
       id="path1"
       style="stroke-width:1.06332" />
    <path
       d="m 2208.2765,4096.7366 c -33.7639,-38.0514 -98.2224,-110.0403 -144.2641,-161.461 -46.0418,-50.3923 -134.0327,-148.0917 -194.3985,-215.967 -60.3659,-67.8753 -120.7317,-132.6654 -134.0327,-143.9779 -12.2778,-11.3126 -65.4816,-70.9606 -117.6622,-133.6938 -51.1575,-61.7049 -101.2919,-120.3245 -111.5234,-130.6086 -32.7408,-31.8809 -752.01529,-833.0153 -760.20049,-848.4415 -6.13891,-9.2558 9.20835,-31.8809 51.1575,-74.0458 C 947.75566,2238.3925 2315.7073,999.1537 2331.0545,999.1537 c 18.4167,0 62.4122,41.1366 532.0381,503.9228 650.7234,640.7019 976.0851,965.6807 976.0851,975.9649 0,26.7387 -49.1112,31.8808 -290.5746,31.8808 -199.5143,0 -252.7181,-3.0852 -258.857,-13.3694 -16.3704,-27.7671 -946.4138,-1015.0445 -955.6221,-1015.0445 -6.1389,0 -238.394,202.5975 -516.6908,450.4453 -279.3199,246.8193 -520.7833,461.7578 -538.1769,477.1841 l -31.7176,27.7671 30.6945,28.7956 c 36.8334,34.9661 144.2641,157.3474 289.5514,332.1777 59.3427,69.9322 127.8938,151.1769 153.4725,179.9725 25.5788,27.7671 69.5742,79.1878 96.1761,113.1255 27.6251,33.9377 57.2964,68.9037 66.5048,77.1311 9.2083,8.2273 24.5556,25.7103 33.7639,39.0797 8.1852,12.341 35.8103,45.2502 60.3659,71.989 61.389,64.79 168.8197,192.3134 218.9541,258.1319 55.2501,73.0174 74.6899,83.3015 99.2455,51.4207 10.2315,-13.3694 171.8893,-205.6828 358.1026,-427.8202 L 2995.0789,2758.77 h 253.7412 l 252.7181,-1.0284 v 24.6819 c 0,14.3978 -15.3473,40.1082 -38.8797,63.7617 -21.4862,22.6251 -54.227,61.7048 -73.6668,89.472 -18.4167,26.7387 -37.8566,48.3354 -40.926,48.3354 -4.0926,0 -23.5325,20.5683 -42.9723,46.2787 -20.463,25.7103 -86.9678,100.7845 -148.3568,166.603 -62.4121,66.8469 -258.8569,287.9559 -437.9082,491.5819 -348.8942,397.9962 -423.5841,478.2125 -439.9545,478.2125 -5.1158,-1.0284 -37.8566,-31.8808 -70.5974,-69.9321 z"
       id="path2"
       style="stroke-width:1.02578" />
    <path
       d="m 2212.2263,3455.4352 c -16.5545,-17.562 -197.6811,-236.1122 -403.1527,-484.908 -205.4715,-248.7958 -381.729,-461.4919 -391.467,-471.2485 -25.3188,-25.3675 -18.5022,-60.4917 22.3974,-119.0319 l 32.1353,-44.8808 h 503.4539 503.454 l 6.8166,-30.2457 c 6.8166,-29.2701 0.9738,-37.0755 -95.4323,-133.6668 l -103.2227,-103.4211 -56.4803,48.7836 c -30.1878,26.343 -82.773,73.1752 -115.8821,104.3966 l -60.3755,55.6132 H 1865.554 1675.6632 l -11.6856,-38.0511 c -7.7904,-29.2701 -7.7904,-43.9051 0,-61.4672 5.8428,-12.6837 144.1222,-144.3991 307.7204,-293.6767 288.2444,-264.4065 297.0086,-271.2362 333.0392,-268.3092 34.083,2.9271 62.3231,29.2701 435.288,411.7327 446.9736,459.5406 415.812,414.6598 376.8601,532.7159 l -17.5283,53.6618 -535.5894,2.9271 c -294.0872,0.9756 -538.5106,5.8539 -543.3796,10.7323 -9.738,9.7567 28.2401,87.8103 81.799,169.7666 21.4236,31.2214 37.9782,59.5158 37.9782,61.4672 0,12.6837 80.8253,121.9587 87.6419,119.0317 4.869,-1.9513 62.3231,-71.2239 128.5414,-154.1559 l 119.7773,-151.2288 202.5501,-2.927 c 200.6025,-1.9514 203.5239,-1.9514 221.0523,19.5134 26.2926,31.2214 24.345,49.7592 -7.7904,81.9562 -15.5808,15.6108 -53.5589,59.5159 -86.6681,96.5914 -85.6943,99.5183 -335.9605,389.2923 -406.0741,468.3216 -66.2182,76.1022 -141.2008,151.2288 -150.9388,151.2288 -3.8951,0 -20.4497,-14.635 -36.0305,-31.2214 z"
       id="path3"
       style="stroke-width:0.974734" />
    <path
       style="fill:#000080;stroke-width:0.777911"
       d="M 304.16327,591.89478 C 300.09868,588.42356 288.5467,578.13553 278.4922,569.0325 268.4377,559.92948 257.40711,550.22286 253.97978,547.46225 250.55246,544.70164 238.30036,533.89684 226.75289,523.45158 187.63301,488.06571 97.743324,407.69879 64.566627,378.44707 55.367827,370.33653 41.530844,357.91854 33.817775,350.85152 26.104706,343.78451 15.86545,334.52175 11.063873,330.26761 6.2622964,326.01347 2.3405972,321.98778 2.3489863,321.32163 2.3573753,320.65548 7.6669662,314.33445 14.148077,307.27491 82.642731,232.66718 282.09508,19.195363 287.4335,14.780312 c 1.09626,-0.906646 3.55247,-1.152669 11.01395,-1.103202 5.28168,0.03502 9.83762,0.298236 10.12432,0.584933 0.28669,0.286697 0.68451,13.288929 0.88405,28.893849 l 0.36277,28.372581 -7.70988,8.382223 c -4.24044,4.610221 -12.41729,13.633122 -18.17078,20.050889 -16.72135,18.651915 -34.885,38.274965 -53.28727,57.568765 -20.96201,21.97755 -56.13688,60.23031 -70.80368,76.9992 -5.98234,6.83975 -16.30344,18.2167 -22.93575,25.28211 -27.35066,29.13667 -49.753332,53.67177 -51.718623,56.64153 -1.484543,2.24328 -1.889554,3.52537 -1.393628,4.41154 1.142059,2.04076 22.836511,22.41028 66.772801,62.69486 22.74831,20.85761 47.63511,43.81913 55.304,51.0256 12.76683,11.99699 40.34306,37.38758 58.61402,53.96833 12.01654,10.90493 35.07205,31.12818 41.09015,36.04242 l 5.58714,4.56232 3.30481,-2.94399 c 1.81765,-1.61919 19.40757,-18.73619 39.08872,-38.03778 19.68116,-19.3016 37.65317,-36.57018 39.93781,-38.37464 3.04171,-2.40242 4.86416,-3.28084 6.80672,-3.28084 h 2.65283 v 32.54011 32.54011 l -22.36494,22.11769 c -29.8325,29.5027 -66.92203,64.49881 -68.3487,64.49097 -0.38,-0.002 -4.01649,-2.8439 -8.08107,-6.31511 z"
       id="path6"
       transform="matrix(7.5,0,0,-7.5,0,4860)" />
    <path
       style="fill:#000080;stroke-width:0.777911"
       d="M 303.26343,507.8171 C 272.25449,480.58842 185.40209,402.1006 136.13445,356.78399 118.42099,340.49107 103.19323,325.68701 100.98458,322.61214 l -1.555647,-2.16576 3.528337,-4.12996 c 5.89734,-6.90291 56.95096,-63.96249 79.37808,-88.71614 11.59863,-12.80184 26.4764,-29.60472 33.06171,-37.33974 6.58531,-7.73501 15.18176,-17.38923 19.10323,-21.45382 6.51117,-6.74881 18.60573,-20.10252 55.13187,-60.87155 7.18733,-8.022205 13.65963,-14.587293 14.38292,-14.589081 2.22125,-0.0055 6.13372,4.279807 72.09155,78.961231 13.22557,14.97479 30.54995,34.40312 38.49861,43.17407 20.26032,22.35623 30.97695,34.36974 34.8837,39.10515 1.84629,2.23791 5.69695,6.8478 8.55702,10.24421 6.3465,7.53661 8.69152,11.16789 8.69676,13.46697 l 0.004,1.7503 h -33.41544 -33.41545 l -25.15623,-29.7551 c -13.83593,-16.36531 -34.97454,-41.48212 -46.97469,-55.81513 -12.00015,-14.33301 -22.39889,-26.5402 -23.1083,-27.12708 -2.51445,-2.08017 -5.50908,0.32362 -14.76707,11.85354 -9.00287,11.21222 -15.51187,18.89024 -26.58659,31.36157 -3.42281,3.85445 -9.60213,11.00054 -13.73184,15.8802 -4.12969,4.87966 -14.98155,17.63689 -24.11524,28.34941 -9.13368,10.71251 -23.35288,27.41776 -31.5982,37.12277 -8.24533,9.70501 -17.92269,20.72565 -21.50523,24.4903 l -6.51373,6.84481 4.46435,3.87395 c 2.45539,2.13066 21.0332,18.57646 41.28402,36.54621 76.61588,67.98579 98.09929,86.73709 99.37486,86.73709 1.64819,0 71.8415,-73.77032 118.80073,-124.85474 5.11292,-5.56206 9.833,-10.4629 10.48907,-10.89075 0.74587,-0.48641 12.99878,-0.77583 32.69827,-0.77236 33.12343,0.006 38.10504,0.44099 38.12842,3.33055 0.0114,1.4088 -74.22683,75.66907 -145.89597,145.93928 -40.84839,40.05106 -52.46876,51.03674 -53.9854,51.03674 -0.37696,0 -3.95608,-2.87198 -7.95361,-6.38218 z"
       id="path7"
       transform="matrix(7.5,0,0,-7.5,0,4860)" />
    <path
       style="fill:#00179a;stroke-width:0.777911;fill-opacity:1"
       d="m 301.78735,430.31086 c -3.98,-2.54072 -12.30889,-9.79401 -32.63009,-28.41622 -26.07219,-23.89238 -45.65197,-42.53353 -46.66669,-44.42956 -1.07759,-2.0135 -0.76223,-7.11084 0.66268,-10.71118 l 0.84666,-2.13925 h 24.62999 24.62999 l 5.79019,5.2509 c 12.22867,11.08971 25.52149,22.73785 25.95731,22.7457 1.22538,0.0221 26.36348,-26.48207 26.81196,-28.26894 0.28056,-1.11785 0.19814,-3.3517 -0.18316,-4.9641 l -0.69328,-2.93163 -67.26924,-0.19874 -67.26924,-0.19874 -3.23117,-4.85768 c -4.23167,-6.36182 -5.69667,-9.39948 -5.69667,-11.81199 0,-1.33156 1.98009,-4.32257 6.07666,-9.17909 3.34217,-3.96217 22.13732,-26.63227 41.767,-50.37801 50.64637,-61.26616 62.39323,-75.20401 63.85487,-75.7649 2.30206,-0.88338 13.38626,11.15189 59.0311,64.09623 6.82397,7.91525 16.09662,18.53337 20.6059,23.59583 10.30732,11.57178 10.69777,12.2621 8.78649,15.53467 -2.54018,4.3494 -2.95537,4.40857 -31.02264,4.42106 l -25.76736,0.0115 -15.07297,-18.74902 c -8.29014,-10.31199 -15.87611,-19.6761 -16.85772,-20.80916 l -1.78475,-2.0601 -3.36236,3.82068 c -1.84931,2.10138 -4.7218,6.05788 -6.38332,8.79223 -1.66153,2.73434 -4.74164,7.66618 -6.8447,10.95963 -5.48214,8.58517 -11.34553,20.08297 -11.34553,22.24798 0,1.03448 0.60198,2.10199 1.36135,2.4141 0.74874,0.30775 31.29147,0.70581 67.87275,0.88459 36.58127,0.17877 68.32785,0.51204 70.54796,0.74059 l 4.03656,0.41556 2.38121,7.14755 c 3.12341,9.3754 3.05634,11.01613 -0.67794,16.58448 -4.2374,6.3186 -12.00054,14.61018 -53.4333,57.07064 -43.5963,44.67766 -50.69526,51.32938 -54.79103,51.33923 -0.66497,0.002 -2.76533,-0.99058 -4.66747,-2.20484 z"
       id="path8"
       transform="matrix(7.5,0,0,-7.5,0,4860)" />
    <path
       style="fill:#00179a;fill-opacity:1;stroke-width:0.777911"
       d="m 307.497,510.89316 c -17.96656,-15.4307 -94.61967,-84.49757 -154.2485,-138.98279 -28.93261,-26.43686 -52.89796,-49.62065 -52.89796,-51.17286 0,-0.96338 18.5523,-21.96816 69.26221,-78.41818 16.91119,-18.82545 36.85425,-41.22929 44.31791,-49.78632 7.46366,-8.55702 17.79727,-20.109 22.96358,-25.67107 5.16631,-5.56206 20.43234,-22.36494 33.92451,-37.33973 30.15307,-33.466521 31.9731,-35.394959 33.40502,-35.394959 2.04372,0 7.69278,6.151429 61.42174,66.883879 16.45727,18.60247 41.09817,46.25721 54.75754,61.45499 34.18037,38.02997 44.83204,50.88716 45.99423,55.5177 l 0.51809,2.0642 -33.34004,-0.0201 -33.34004,-0.0201 -6.29963,-7.56452 c -7.94534,-9.54067 -81.56705,-96.89314 -86.05141,-102.10037 -1.83261,-2.12803 -3.95695,-3.86932 -4.72074,-3.86953 -2.65535,-7.3e-4 -5.37335,2.64571 -16.29925,15.87006 -6.04417,7.31568 -16.63564,19.77734 -23.53659,27.69258 -6.90096,7.91525 -25.63842,29.794 -41.6388,48.61945 -33.71505,39.66789 -42.54862,49.86344 -50.33836,58.0996 -3.11049,3.28876 -5.65543,6.15672 -5.65543,6.37325 0,0.21654 22.84141,20.61109 50.7587,45.32124 27.91729,24.71014 54.95943,48.65171 60.09364,53.2035 17.66774,15.6635 33.2252,28.75751 34.16781,28.75751 1.95669,0 44.36208,-43.98374 101.28365,-105.05348 13.74004,-14.74135 25.9318,-27.67761 27.09279,-28.74724 l 2.11088,-1.94477 h 32.41433 c 17.82788,0 33.377,0.26921 34.55359,0.59825 1.17659,0.32904 2.13925,1.11945 2.13925,1.75647 0,1.58041 -58.29809,60.21372 -123.68787,124.39909 -60.89848,59.77679 -73.65776,72.00249 -75.14494,72.00249 -0.56993,0 -2.36088,-1.1377 -3.97991,-2.52821 z"
       id="path9"
       transform="matrix(7.5,0,0,-7.5,0,4860)" />
    <path
       style="fill:#002c6e;fill-opacity:1;stroke-width:0.777911"
       d="m 304.46938,591.51421 c -3.8051,-3.25685 -14.44465,-12.6495 -23.64345,-20.87255 -9.1988,-8.22305 -22.32605,-19.80892 -29.17167,-25.74637 -6.84562,-5.93745 -31.17479,-27.61989 -54.06482,-48.18321 C 152.29656,456.02312 120.93117,427.99198 77.013205,388.95352 46.667534,361.9794 9.9400726,328.83179 5.6953224,324.58704 c -1.4210228,-1.42102 -2.5836777,-2.91308 -2.5836777,-3.31569 0,-1.76723 15.0560083,-18.17247 125.6467353,-136.9064 91.07228,-97.778281 154.04011,-164.721641 158.35268,-168.350437 2.26727,-1.907782 2.85302,-2.012112 11.29681,-2.012112 8.52533,0 8.93313,0.07473 9.55169,1.7503 0.35538,0.962665 0.8715,13.827371 1.14693,28.588235 l 0.5008,26.837936 -26.17727,28.782713 c -14.3975,15.830495 -38.84467,42.260025 -54.32704,58.732295 -31.434,33.4438 -46.81287,50.15299 -70.90341,77.03677 -9.02145,10.06746 -21.6286,23.89483 -28.0159,30.72749 -35.274284,37.73382 -46.945736,50.97883 -46.946685,53.27604 -8.33e-4,2.00321 13.10655,14.52272 68.844645,65.75691 16.25835,14.94459 41.46543,38.2031 56.01574,51.68559 67.42984,62.48122 100.96159,92.20498 103.41457,91.67045 0.64738,-0.14108 17.19934,-15.84801 36.78213,-34.90432 43.59642,-42.42431 46.25168,-44.90293 49.60317,-46.30327 5.43268,-2.26991 5.06074,-4.55208 5.06074,31.05233 v 32.17087 l -24.70532,24.42217 c -31.96774,31.60136 -64.45763,62.15086 -66.09845,62.15086 -0.42155,0 -3.87972,-2.6647 -7.68483,-5.92156 z"
       id="path10"
       transform="matrix(7.5,0,0,-7.5,0,4860)" />
    <path
       style="fill:#002c6e;fill-opacity:1;stroke-width:0.777911"
       d="M 309.11889,511.69669 C 301.81572,506.11362 185.61058,401.3952 142.75141,361.77442 c -19.9008,-18.39712 -41.62296,-39.73466 -41.62296,-40.88599 0,-1.40825 11.36429,-14.36436 72.32755,-82.45866 12.6405,-14.11909 29.7979,-33.37239 38.12754,-42.78511 8.32966,-9.41273 23.9037,-26.75276 34.60898,-38.53341 10.70528,-11.78064 27.61352,-30.41463 37.57387,-41.40886 9.96034,-10.99423 18.7567,-20.335754 19.54744,-20.758947 2.02655,-1.084579 7.81819,5.069747 59.26143,62.972527 23.75756,26.74069 52.39484,58.92828 63.63842,71.52798 29.2964,32.82991 37.06284,42.24879 39.34966,47.72192 l 1.20424,2.88215 h -33.02226 -33.02226 l -36.53769,-43.36855 c -62.03801,-73.63625 -58.7014,-69.79576 -60.85832,-70.04901 -2.83899,-0.33334 -4.88403,1.56325 -16.44367,15.25005 -17.62164,20.86431 -111.50845,130.16363 -116.57054,135.70681 -4.22576,4.62737 -4.67264,5.41001 -3.7364,6.54385 1.49688,1.81282 102.51649,91.52659 124.75129,110.78948 11.29896,9.78873 18.46048,15.48991 19.45761,15.48991 1.78756,0 43.68924,-43.17398 90.97591,-93.73829 13.20387,-14.11909 27.50582,-29.25918 31.78212,-33.64466 l 7.77507,-7.97359 h 31.67572 c 17.42164,0 32.76965,0.21879 34.10668,0.4862 1.52048,0.30409 2.43097,0.95751 2.43097,1.74459 0,2.17567 -184.49569,185.28074 -195.34969,193.87727 l -2.83029,2.24163 z"
       id="path11"
       transform="matrix(7.5,0,0,-7.5,0,4860)" />
    <path
       style="fill:#00436e;fill-opacity:1;stroke-width:0.777911"
       d="m 301.82953,429.85653 c -5.38946,-3.54843 -48.21454,-42.44273 -71.7623,-65.17545 -7.29667,-7.04411 -7.58464,-7.44987 -7.58464,-10.68686 0,-1.8506 0.40547,-4.71807 0.90105,-6.37215 l 0.90104,-3.00742 24.18659,0.0259 24.18659,0.0259 14.78032,13.24883 c 8.12917,7.28685 15.5767,13.63647 16.55007,14.11026 2.14664,1.04488 2.76198,0.5025 17.77576,-15.66827 9.36647,-10.08827 10.403,-11.48472 10.39344,-14.0024 -0.006,-1.53812 -0.2212,-3.58229 -0.47857,-4.54261 l -0.46795,-1.74602 -67.35701,-0.19876 -67.35701,-0.19875 -4.1212,-6.57471 c -5.11225,-8.15574 -5.25812,-10.13574 -1.1295,-15.33143 5.00817,-6.30256 83.46677,-100.84226 95.92798,-115.58966 6.41706,-7.59436 12.07713,-13.80836 12.57793,-13.80888 1.41982,-0.001 13.47549,12.74106 30.17598,31.89531 8.39342,9.62665 24.43745,28.00481 35.6534,40.84034 11.21595,12.83553 20.94291,24.45332 21.61547,25.81731 1.1238,2.27909 1.11523,2.64421 -0.10578,4.50771 -0.73073,1.11526 -2.12311,2.3298 -3.09416,2.699 -0.97105,0.36919 -13.15368,0.92717 -27.07252,1.23996 l -25.30696,0.5687 -10.31835,-12.74888 c -5.67509,-7.01187 -13.34005,-16.4941 -17.03326,-21.07161 -3.69321,-4.57751 -6.97572,-8.25314 -7.29448,-8.16807 -1.3612,0.36329 -7.70005,9.02179 -14.04759,19.18817 -8.90103,14.25614 -13.94435,24.26862 -13.62465,27.04895 l 0.247,2.14805 9.33493,0.47796 c 5.13422,0.26288 29.11333,0.57213 53.28692,0.68724 24.17359,0.1151 52.14729,0.42511 62.16378,0.68891 l 18.2118,0.47963 2.20837,6.57706 c 3.67152,10.9347 3.04995,13.21779 -6.60529,24.26169 -13.56231,15.5129 -88.31062,91.61173 -95.30182,97.0237 -4.76849,3.69135 -7.01807,3.96326 -11.01538,1.33141 z"
       id="path12"
       transform="matrix(7.5,0,0,-7.5,0,4860)" />
    <path
       style="fill:#00436e;fill-opacity:1;stroke-width:0.777911"
       d="M 299.82604,503.15993 C 251.22355,460.60812 140.1417,359.44449 117.10438,336.75301 102.47693,322.34515 101.6263,321.3498 102.45971,319.61669 c 1.06024,-2.20483 8.35403,-10.51666 62.0685,-70.7318 C 235.75226,169.0411 284.58517,114.881 298.40448,100.40401 l 5.52093,-5.783676 4.11179,3.837492 c 6.66957,6.224644 53.20657,58.072344 128.89037,143.599064 20.26255,22.89776 29.04122,34.07514 29.04122,36.97656 0,0.81836 -6.28116,1.00968 -32.47779,0.9893 l -32.47779,-0.0253 -22.94838,-27.31768 c -43.41467,-51.6807 -67.07792,-79.60151 -70.25942,-82.9007 -5.7328,-5.94489 -6.2132,-5.6033 -27.94214,19.86802 -24.46029,28.67309 -95.87434,111.77171 -105.37155,122.61216 -4.83815,5.52244 -8.79664,10.35247 -8.79664,10.73342 0,0.95556 -1.04683,0.004 49.39736,44.89556 72.17816,64.23299 93.32091,82.52229 95.39718,82.52229 2.30369,0 32.01496,-30.28763 85.46806,-87.12605 14.28406,-15.18871 30.44729,-32.25414 35.91828,-37.92317 l 9.94724,-10.30732 20.43534,0.10762 c 30.47552,0.16049 45.91164,0.84946 46.31493,2.06722 0.40061,1.2097 -83.26263,85.26928 -144.12209,144.80486 -43.47595,42.5302 -51.96251,50.60974 -53.15939,50.60974 -0.34865,0 -5.50833,-4.26758 -11.46595,-9.48353 z"
       id="path13"
       transform="matrix(7.5,0,0,-7.5,0,4860)" />
    <path
       style="fill:#00356e;fill-opacity:1;stroke-width:0.777911"
       d="m 306.34291,592.58753 c -2.69629,-2.23868 -11.02838,-9.51178 -18.51578,-16.16244 C 280.33974,569.77444 265.11212,556.29582 253.988,546.4726 242.86387,536.64938 210.48331,507.77109 182.03121,482.29861 153.57911,456.82615 115.5976,422.88064 97.627851,406.86415 79.658103,390.84766 52.915713,366.87624 38.200317,353.59432 23.484922,340.3124 9.7450662,327.93047 7.6673044,326.07893 c -2.0777617,-1.85155 -3.7777486,-3.95195 -3.7777486,-4.66758 0,-2.15856 9.5879372,-12.66265 111.2307242,-121.85909 C 208.69457,99.023937 275.82679,27.587636 285.83371,17.893786 l 3.61176,-3.498771 8.55374,-0.0018 c 6.31815,-0.0014 8.72248,0.271027 9.19936,1.042166 0.67759,1.09568 1.51006,21.111261 1.78778,42.984309 l 0.16394,12.911859 -16.27287,17.815632 c -22.0723,24.164889 -38.59575,42.039369 -70.78378,76.571349 -34.83059,37.36697 -39.7898,42.75664 -62.25144,67.65485 -10.22851,11.33805 -27.01088,29.72273 -37.29417,40.85484 -33.717288,36.5004 -39.311535,42.95666 -39.311535,45.36897 0,2.55844 14.162067,16.03163 99.572625,94.72915 90.80128,83.66455 117.21825,107.4453 125.42762,112.91091 2.67496,1.78092 3.04694,1.84165 4.66747,0.76202 0.96847,-0.64523 12.75357,-11.803 26.18912,-24.79507 46.45674,-44.92331 55.70946,-53.60018 58.78313,-55.12468 2.07942,-1.03136 3.34309,-1.27435 3.87275,-0.74469 0.49296,0.49297 0.89864,12.36023 1.08762,31.81647 l 0.3014,31.03026 -24.39984,24.02598 c -38.68959,38.09677 -64.64535,62.45035 -66.55886,62.45035 -0.51386,0 -3.14034,-1.83164 -5.83662,-4.07033 z"
       id="path14"
       transform="matrix(7.5,0,0,-7.5,0,4860)" />
    <path
       style="fill:#00356e;fill-opacity:1;stroke-width:0.777911"
       d="M 302.06922,504.80323 C 270.52446,477.66523 167.8571,384.44031 126.24128,345.14638 108.5426,328.43517 102.68427,322.24591 102.68427,320.25863 c 0,-1.67091 6.23137,-8.79487 77.35987,-88.4411 47.72678,-53.44213 81.32863,-90.77862 100.74331,-111.94036 8.79211,-9.58328 17.58667,-19.19067 19.54346,-21.349759 l 3.5578,-3.925618 4.99922,5.01593 c 7.5917,7.617067 37.68836,40.990557 85.54609,94.860067 60.205,67.76782 66.81927,75.4872 69.96673,81.65674 l 1.4867,2.91416 -5.91104,0.49966 c -3.25107,0.27482 -17.84777,0.47327 -32.43712,0.44099 l -26.52608,-0.0587 -26.44898,-31.54473 c -65.29641,-77.87663 -68.82574,-81.91294 -71.62425,-81.91294 -1.08147,0 -3.26594,1.24252 -5.12866,2.91717 -1.78463,1.60444 -21.87388,24.62088 -44.64279,51.14766 -22.76891,26.52677 -51.765,60.26741 -64.43574,74.9792 -12.67074,14.71179 -23.03771,27.20106 -23.03771,27.75394 0,0.55288 1.0055,1.81824 2.23445,2.81191 1.22895,0.99368 10.06796,8.82845 19.64225,17.41062 43.43392,38.93309 99.04989,88.03704 112.17453,99.0401 11.07622,9.28578 10.1903,9.15282 17.41569,2.61371 3.33305,-3.01646 9.72349,-9.2798 14.20098,-13.91853 4.47748,-4.63873 12.72693,-13.15986 18.33209,-18.93585 5.60517,-5.77599 28.691,-30.06073 51.30184,-53.96608 l 41.1106,-43.46429 26.51648,0.5038 c 29.65288,0.56337 39.352,1.09077 39.352,2.13978 0,2.46478 -179.50924,180.96475 -194.2381,193.14601 l -2.483,2.05353 z"
       id="path15"
       transform="matrix(7.5,0,0,-7.5,0,4860)" />
    <path
       style="fill:#00396e;fill-opacity:1;stroke-width:0.777911"
       d="m 302.9964,430.04645 c -6.52536,-3.6448 -77.0453,-68.53434 -79.37314,-73.03589 -0.83309,-1.61102 -0.92111,-3.13091 -0.37547,-6.48347 0.392,-2.40853 0.92594,-4.72414 1.18654,-5.1458 0.29437,-0.47629 9.39862,-0.76664 24.03856,-0.76664 h 23.56474 l 11.59675,10.30732 c 17.13695,15.23154 20.16285,17.69748 21.7161,17.69748 1.45222,0 8.90182,-7.37831 20.33973,-20.14508 l 6.5487,-7.30954 -0.22989,-4.35913 -0.22991,-4.35912 -16.33613,-0.47444 c -8.98488,-0.26095 -39.4401,-0.52463 -67.67827,-0.58598 l -51.34214,-0.11153 -3.69508,-6.45535 c -4.52012,-7.89672 -4.66039,-10.04772 -0.97044,-14.88183 5.06981,-6.64181 75.30686,-91.24622 97.07438,-116.93145 5.52952,-6.52473 10.50554,-11.86314 11.05781,-11.86314 1.95164,0 30.65485,31.8221 71.21932,78.95798 18.05332,20.97795 18.24302,21.30016 14.34559,24.36588 -2.07737,1.63405 -4.47503,1.80728 -39.67264,2.86618 l -14.0024,0.42126 -14.58386,-18.10517 c -8.02112,-9.95784 -15.77768,-19.50541 -17.23677,-21.21682 l -2.65292,-3.11164 -2.03857,1.90661 c -4.22653,3.95294 -17.74347,25.10828 -23.1103,36.16988 -1.64969,3.40018 -2.99943,7.29967 -2.99943,8.66555 v 2.48339 l 9.14046,0.46398 c 5.02725,0.25518 33.97888,0.68814 64.33695,0.96211 30.35807,0.27397 58.52403,0.71647 62.59101,0.98333 l 7.39451,0.4852 1.77674,5.83433 c 0.97722,3.20888 1.77873,7.41428 1.78115,9.34532 0.008,6.44812 -1.85945,8.616 -50.92103,59.11086 -33.27147,34.24346 -51.87592,52.49125 -55.40279,54.34068 -2.12668,1.1152 -4.83387,1.10521 -6.85786,-0.0253 z"
       id="path16"
       transform="matrix(7.5,0,0,-7.5,0,4860)" />
    <path
       style="fill:#00396e;fill-opacity:1;stroke-width:0.777911"
       d="m 308.83073,510.98407 c -4.21281,-3.48247 -45.6831,-40.15648 -50.95318,-45.06014 -1.7114,-1.59242 -5.38703,-4.92409 -8.16807,-7.40372 -2.78103,-2.47962 -5.79091,-5.23117 -6.68861,-6.11455 -0.89771,-0.88338 -4.02784,-3.7065 -6.95587,-6.27361 -2.92802,-2.5671 -6.61835,-5.89267 -8.20074,-7.39015 -1.58238,-1.49748 -5.44697,-4.99808 -8.58799,-7.77911 -7.39839,-6.5505 -12.52098,-11.21348 -17.09174,-15.55823 -2.02547,-1.92533 -6.02528,-5.60096 -8.88846,-8.16807 -2.86318,-2.5671 -6.73055,-6.0677 -8.59414,-7.77911 -4.08789,-3.75406 -11.94453,-10.90011 -18.38817,-16.72509 -2.60311,-2.35318 -6.77821,-6.20384 -9.278,-8.55702 -2.4998,-2.35318 -7.22124,-6.72893 -10.4921,-9.72389 -18.87673,-17.28445 -43.08832,-40.97783 -42.6307,-41.71827 0.19792,-0.32024 -0.26011,-0.94743 -1.01785,-1.39375 -1.10294,-0.64965 -1.17052,-0.94804 -0.33887,-1.49614 0.57135,-0.37654 1.07688,-0.99556 1.12339,-1.37557 0.0465,-0.38002 0.3468,-1.041 0.66732,-1.46885 2.74761,-3.6677 91.25584,-103.41063 96.48207,-108.72892 1.16478,-1.18529 2.86835,-3.11062 3.78572,-4.27851 1.46342,-1.86305 6.88142,-7.93324 16.45128,-18.4316 1.57405,-1.72678 8.20304,-9.09062 14.73107,-16.36409 6.52803,-7.27347 12.98921,-14.4497 14.35818,-15.94718 6.26444,-6.85252 27.58287,-30.29799 30.33162,-33.35797 9.17729,-10.21639 23.09612,-24.985368 23.54713,-24.985368 0.28615,0 3.80663,3.413085 7.82329,7.584638 10.17361,10.56592 12.34061,12.91619 24.92457,27.03241 6.10256,6.84562 12.5493,14.05559 14.32611,16.02217 1.7768,1.96658 4.30744,4.76706 5.62363,6.22329 1.31621,1.45623 7.0489,7.8986 12.73933,14.31636 5.69042,6.41777 11.59694,13.06891 13.12561,14.78032 1.52865,1.7114 5.90445,6.61224 9.72398,10.89075 3.81953,4.27851 9.13513,10.22953 11.81244,13.22449 2.67731,2.99496 5.83695,6.6095 7.02141,8.03232 1.18447,1.42282 3.06288,3.55119 4.17426,4.72971 1.11138,1.17852 2.92156,3.16494 4.02262,4.41426 11.5891,13.14956 16.83584,19.13492 19.24928,21.95909 1.57522,1.84331 3.91422,4.51488 5.19777,5.93683 1.28355,1.42194 3.38391,3.75482 4.66747,5.18417 5.56084,6.19247 14.45631,17.5434 15.54296,19.83335 2.52238,5.31553 4.61454,4.9787 -30.92483,4.9787 h -32.10695 l -11.26159,-13.4024 c -71.98788,-85.67261 -83.55706,-99.15047 -85.69036,-99.82755 -2.10554,-0.66827 -5.8995,1.98725 -10.82989,7.58021 -2.38071,2.70063 -26.71461,30.98972 -54.07534,62.86463 -27.36073,31.87491 -54.59172,63.55534 -60.51332,70.40096 -14.9554,17.2891 -14.11347,15.44568 -9.0247,19.75987 2.32088,1.9676 9.13448,7.96527 15.14133,13.32814 57.0293,50.91531 109.37788,97.02915 117.8757,103.83663 8.63809,6.91985 7.55706,7.00838 16.11466,-1.31964 8.90295,-8.66408 26.48061,-26.60921 40.24741,-41.0888 5.49165,-5.77599 10.72507,-11.20192 11.62981,-12.05762 0.90474,-0.8557 3.89576,-4.00624 6.64672,-7.0012 4.63042,-5.04113 21.3223,-22.7388 36.30301,-38.4905 3.46715,-3.64559 11.16847,-11.81046 17.11404,-18.14414 l 10.81014,-11.5158 27.22689,0.48997 c 14.97479,0.26949 29.30638,0.4757 31.84799,0.45823 2.54161,-0.0174 5.0642,0.33601 5.60578,0.78547 0.54157,0.44947 1.35007,0.59139 1.79667,0.31538 0.44659,-0.27601 0.81198,-0.24125 0.81198,0.0772 0,0.8404 -4.68723,5.6019 -66.45651,67.50953 -79.13027,79.30751 -129.02126,128.09172 -130.91516,128.01094 -0.3337,-0.0142 -1.48187,-0.74932 -2.5515,-1.63351 z"
       id="path17"
       transform="matrix(7.5,0,0,-7.5,0,4860)" />
    <path
       style="fill:#00396e;fill-opacity:1;stroke-width:0.777911"
       d="m 300.42956,428.03996 c -8.53166,-6.41058 -50.07217,-44.22391 -68.51848,-62.37074 l -8.85242,-8.70871 0.388,-5.4228 c 0.2134,-2.98253 0.63752,-5.67284 0.94249,-5.97845 0.30497,-0.30561 11.14568,-0.66178 24.09047,-0.79149 l 23.53598,-0.23582 11.23534,9.9835 c 14.73888,13.09669 20.79317,18.104 21.88938,18.104 0.91375,0 15.61702,-14.58965 23.01425,-22.83641 4.01991,-4.48157 4.08247,-4.62674 3.85538,-8.94598 l -0.23084,-4.39048 -21.78151,-0.47795 c -11.97983,-0.26287 -42.45292,-0.52542 -67.71797,-0.58343 l -45.93646,-0.10549 -3.44767,-6.02881 c -4.95454,-8.66385 -4.81975,-10.71735 1.19146,-18.15109 26.46839,-32.73199 95.64806,-115.58193 101.72972,-121.83204 3.14054,-3.22753 4.20791,-3.89665 5.29111,-3.31694 3.35102,1.79341 72.81466,80.24857 82.86465,93.59083 7.44907,9.88931 5.4794,10.55718 -34.69828,11.76553 l -17.51095,0.52663 -4.22167,-5.30946 c -15.37302,-19.33424 -30.04409,-36.80036 -30.73397,-36.58923 -1.53876,0.47094 -10.54514,13.22459 -17.25468,24.43382 -7.19104,12.01367 -10.34747,18.7692 -10.37716,22.20968 -0.0184,2.13668 -0.0114,2.13937 5.81587,2.2365 3.20888,0.0535 6.09688,0.16319 6.41776,0.24379 0.32089,0.0806 25.08324,0.43125 55.02742,0.7792 29.9442,0.34795 59.34924,0.85085 65.34454,1.11755 l 10.90055,0.48491 1.70273,5.83433 c 3.47174,11.89573 2.23583,14.86094 -12.80635,30.7252 -38.61035,40.7205 -85.30154,87.65918 -91.17031,91.65358 -2.99096,2.0357 -5.70573,1.59667 -9.97838,-1.61373 z"
       id="path18"
       transform="matrix(7.5,0,0,-7.5,0,4860)" />
    <path
       style="fill:#00396e;fill-opacity:1;stroke-width:0.777911"
       d="M 290.4318,494.89567 C 249.27778,458.57159 164.92667,381.96949 133.42244,352.31016 114.35765,334.3618 101.90636,321.84868 101.90636,320.63754 c 0,-1.44964 9.96933,-12.84435 74.63866,-85.31026 62.43754,-69.96506 110.0723,-122.69434 121.58435,-134.58778 l 6.02373,-6.223294 7.60255,7.779114 c 8.97098,9.17933 28.23686,30.55842 79.56787,88.29544 62.23402,70.00071 68.54062,77.32738 72.8823,84.67084 1.64681,2.78541 1.80704,3.50339 0.90876,4.07213 -0.59982,0.37976 -15.29223,0.69583 -32.64982,0.70238 l -31.55926,0.0119 -13.17063,-15.72966 C 363.58816,235.48 314.09952,177.03149 310.15801,172.69627 c -5.87574,-6.46267 -6.44414,-6.75401 -9.72735,-4.98588 -1.75976,0.94769 -15.42175,16.23062 -38.17992,42.70982 -19.49176,22.67872 -48.23134,56.11159 -63.86573,74.29527 -37.05263,43.0943 -33.04019,37.99246 -31.36065,39.87531 1.7815,1.99715 77.46594,69.42638 107.57828,95.84427 27.29473,23.94598 33.76522,29.19237 36.02935,29.21327 2.28212,0.0211 32.30875,-30.36245 83.76897,-84.7646 22.03433,-23.29402 41.63209,-44.0901 43.55057,-46.2135 l 3.48814,-3.86076 31.51786,0.52675 c 31.19887,0.52142 35.79637,0.79782 35.79637,2.15206 0,1.13516 -96.66612,97.97519 -143.63709,143.8955 -44.65956,43.6606 -52.64547,51.25967 -53.86913,51.25967 -0.38952,0 -9.75667,-7.98651 -20.81588,-17.74779 z"
       id="path19"
       transform="matrix(7.5,0,0,-7.5,0,4860)" />
    <path
       style="fill:#00396e;fill-opacity:1;stroke-width:0.777911"
       d="M 308.71147,594.4619 C 307.1484,593.27792 289.47381,577.7975 269.43461,560.06097 234.49648,529.13752 220.26911,516.45603 151.74574,455.1597 134.81643,440.0159 115.1892,422.47173 108.12965,416.17266 35.395356,351.27348 4.8329987,323.60864 4.2806481,322.16923 c -0.2345128,-0.61112 0.057971,-1.84945 0.6499642,-2.75183 2.0577534,-3.13664 32.9990217,-36.91096 84.1714647,-91.87838 6.771304,-7.27347 23.873713,-25.65163 38.005353,-40.84034 14.13164,-15.18872 27.84245,-29.89124 30.46848,-32.67227 2.62603,-2.78103 12.7787,-13.63289 22.56149,-24.11525 49.14157,-52.655632 103.75821,-110.474207 107.5688,-113.875089 1.38673,-1.237642 2.97689,-1.477544 10.17339,-1.534831 4.69135,-0.03734 8.76658,0.168939 9.05605,0.458408 0.86822,0.868217 1.81027,21.62968 1.80969,39.883089 l -5.3e-4,17.114046 -21.48018,23.337335 c -11.8141,12.835532 -34.63618,37.493362 -50.71574,54.795182 -51.36507,55.2695 -51.95545,55.91059 -80.99548,87.95152 -8.72503,9.62665 -23.60815,25.90444 -33.07361,36.17287 -35.871688,38.91476 -39.738568,43.49975 -38.904111,46.12891 0.959538,3.02322 23.396341,24.16059 124.904511,117.67066 62.02499,57.13786 92.62557,84.51654 99.68061,89.18535 2.75858,1.82553 3.11478,1.88451 4.74341,0.78529 1.67386,-1.12975 7.01558,-6.21851 50.76926,-48.36518 31.36409,-30.21214 33.77747,-32.3198 37.00767,-32.3198 1.67844,0 1.87169,3.55059 2.14135,39.34354 l 0.17627,23.39636 -24.72939,24.44518 c -35.9111,35.49839 -64.35397,62.2213 -66.15249,62.15222 -0.3099,-0.0119 -1.84234,-0.99035 -3.40541,-2.17432 z"
       id="path20"
       transform="matrix(7.5,0,0,-7.5,0,4860)" />
  </g>
</svg>
