<?xml version="1.0" standalone="no"?>
<!DOCTYPE svg PUBLIC "-//W3C//DTD SVG 20010904//EN"
 "http://www.w3.org/TR/2001/REC-SVG-20010904/DTD/svg10.dtd">
<svg version="1.0" xmlns="http://www.w3.org/2000/svg"
 width="401.000000pt" height="486.000000pt" viewBox="0 0 401.000000 486.000000"
 preserveAspectRatio="xMidYMid meet">

<g transform="translate(0.000000,486.000000) scale(0.100000,-0.100000)"
fill="#000000" stroke="none">
<path d="M2078 4710 c-24 -15 -2001 -2128 -2012 -2151 -5 -11 -7 -20 -5 -22
10 -7 202 -178 264 -237 39 -36 99 -90 135 -120 103 -88 1156 -1027 1251
-1115 47 -44 109 -98 138 -120 29 -22 71 -58 94 -80 85 -81 305 -275 312 -275
8 0 314 289 513 484 l132 131 0 232 0 233 -27 0 c-22 0 -56 -28 -168 -138
-241 -238 -443 -435 -456 -443 -11 -6 -484 417 -829 743 -58 54 -257 236 -443
405 -185 168 -337 312 -337 320 0 8 24 40 53 71 29 31 113 122 187 202 74 80
146 156 160 170 26 26 121 131 153 170 53 64 400 439 485 525 91 92 290 307
415 448 29 33 73 82 100 110 l47 50 -2 206 -3 206 -70 2 c-38 2 -78 -2 -87 -7z"/>
<path d="M2136 4162 c-33 -37 -96 -107 -141 -157 -45 -49 -131 -144 -190 -210
-59 -66 -118 -129 -131 -140 -12 -11 -64 -69 -115 -130 -50 -60 -99 -117 -109
-127 -32 -31 -735 -810 -743 -825 -6 -9 9 -31 50 -72 147 -146 1484 -1351
1499 -1351 18 0 61 40 520 490 636 623 954 939 954 949 0 26 -48 31 -284 31
-195 0 -247 -3 -253 -13 -16 -27 -925 -987 -934 -987 -6 0 -233 197 -505 438
-273 240 -509 449 -526 464 l-31 27 30 28 c36 34 141 153 283 323 58 68 125
147 150 175 25 27 68 77 94 110 27 33 56 67 65 75 9 8 24 25 33 38 8 12 35 44
59 70 60 63 165 187 214 251 54 71 73 81 97 50 10 -13 168 -200 350 -416 l333
-392 248 0 247 -1 0 24 c0 14 -15 39 -38 62 -21 22 -53 60 -72 87 -18 26 -37
47 -40 47 -4 0 -23 20 -42 45 -20 25 -85 98 -145 162 -61 65 -253 280 -428
478 -341 387 -414 465 -430 465 -5 -1 -37 -31 -69 -68z"/>
<path d="M2154 3588 c-17 -18 -203 -242 -414 -497 -211 -255 -392 -473 -402
-483 -26 -26 -19 -62 23 -122 l33 -46 517 0 517 0 7 -31 c7 -30 1 -38 -98
-137 l-106 -106 -58 50 c-31 27 -85 75 -119 107 l-62 57 -194 0 -195 0 -12
-39 c-8 -30 -8 -45 0 -63 6 -13 148 -148 316 -301 296 -271 305 -278 342 -275
35 3 64 30 447 422 459 471 427 425 387 546 l-18 55 -550 3 c-302 1 -553 6
-558 11 -10 10 29 90 84 174 22 32 39 61 39 63 0 13 83 125 90 122 5 -2 64
-73 132 -158 l123 -155 208 -3 c206 -2 209 -2 227 20 27 32 25 51 -8 84 -16
16 -55 61 -89 99 -88 102 -345 399 -417 480 -68 78 -145 155 -155 155 -4 0
-21 -15 -37 -32z"/>
</g>
</svg>
